<svg xmlns="http://www.w3.org/2000/svg" xmlns:xlink="http://www.w3.org/1999/xlink" version="1.1" width="256" height="256" viewBox="0 0 256 256" xml:space="preserve">

<defs>
</defs>
<g style="stroke: none; stroke-width: 0; stroke-dasharray: none; stroke-linecap: butt; stroke-linejoin: miter; stroke-miterlimit: 10; fill: none; fill-rule: nonzero; opacity: 1;" transform="translate(1.4065934065934016 1.4065934065934016) scale(2.81 2.81)" >
	<path d="M 22.385 59.064 c -4.997 0 -9.062 -4.065 -9.062 -9.063 V 39.998 c 0 -4.997 4.065 -9.062 9.062 -9.062 s 9.062 4.065 9.062 9.062 v 10.004 C 31.447 54.999 27.382 59.064 22.385 59.064 z M 22.385 34.936 c -2.791 0 -5.062 2.271 -5.062 5.062 v 10.004 c 0 2.791 2.271 5.063 5.062 5.063 s 5.062 -2.271 5.062 -5.063 V 39.998 C 27.447 37.207 25.176 34.936 22.385 34.936 z" style="stroke: none; stroke-width: 1; stroke-dasharray: none; stroke-linecap: butt; stroke-linejoin: miter; stroke-miterlimit: 10; fill: rgb(0,0,0); fill-rule: nonzero; opacity: 1;" transform=" matrix(1 0 0 1 0 0) " stroke-linecap="round" />
	<path d="M 44.265 59.064 c -4.997 0 -9.062 -4.065 -9.062 -9.063 V 39.998 c 0 -4.997 4.065 -9.062 9.062 -9.062 c 4.997 0 9.063 4.065 9.063 9.062 v 10.004 C 53.327 54.999 49.262 59.064 44.265 59.064 z M 44.265 34.936 c -2.791 0 -5.062 2.271 -5.062 5.062 v 10.004 c 0 2.791 2.271 5.063 5.062 5.063 s 5.063 -2.271 5.063 -5.063 V 39.998 C 49.327 37.207 47.056 34.936 44.265 34.936 z" style="stroke: none; stroke-width: 1; stroke-dasharray: none; stroke-linecap: butt; stroke-linejoin: miter; stroke-miterlimit: 10; fill: rgb(0,0,0); fill-rule: nonzero; opacity: 1;" transform=" matrix(1 0 0 1 0 0) " stroke-linecap="round" />
	<path d="M 6.355 59.064 c -1.104 0 -2 -0.896 -2 -2 V 40.492 l -0.117 0.205 c -0.546 0.961 -1.768 1.296 -2.728 0.749 c -0.96 -0.546 -1.295 -1.768 -0.749 -2.728 l 3.855 -6.772 c 0.449 -0.789 1.37 -1.176 2.25 -0.944 c 0.877 0.232 1.488 1.026 1.488 1.934 v 24.129 C 8.355 58.169 7.459 59.064 6.355 59.064 z" style="stroke: none; stroke-width: 1; stroke-dasharray: none; stroke-linecap: butt; stroke-linejoin: miter; stroke-miterlimit: 10; fill: rgb(0,0,0); fill-rule: nonzero; opacity: 1;" transform=" matrix(1 0 0 1 0 0) " stroke-linecap="round" />
	<path d="M 66.443 47 c -3.05 0 -5.53 -2.481 -5.53 -5.531 v -5.002 c 0 -3.05 2.48 -5.531 5.53 -5.531 s 5.531 2.481 5.531 5.531 v 5.002 C 71.975 44.519 69.493 47 66.443 47 z M 66.443 34.936 c -0.844 0 -1.53 0.687 -1.53 1.531 v 5.002 c 0 0.844 0.687 1.531 1.53 1.531 c 0.845 0 1.531 -0.687 1.531 -1.531 v -5.002 C 67.975 35.623 67.288 34.936 66.443 34.936 z" style="stroke: none; stroke-width: 1; stroke-dasharray: none; stroke-linecap: butt; stroke-linejoin: miter; stroke-miterlimit: 10; fill: rgb(0,0,0); fill-rule: nonzero; opacity: 1;" transform=" matrix(1 0 0 1 0 0) " stroke-linecap="round" />
	<path d="M 84.969 59.064 c -3.05 0 -5.531 -2.481 -5.531 -5.531 v -5.002 c 0 -3.05 2.481 -5.531 5.531 -5.531 s 5.531 2.481 5.531 5.531 v 5.002 C 90.5 56.583 88.019 59.064 84.969 59.064 z M 84.969 47 c -0.845 0 -1.531 0.687 -1.531 1.531 v 5.002 c 0 0.845 0.687 1.531 1.531 1.531 s 1.531 -0.687 1.531 -1.531 v -5.002 C 86.5 47.687 85.813 47 84.969 47 z" style="stroke: none; stroke-width: 1; stroke-dasharray: none; stroke-linecap: butt; stroke-linejoin: miter; stroke-miterlimit: 10; fill: rgb(0,0,0); fill-rule: nonzero; opacity: 1;" transform=" matrix(1 0 0 1 0 0) " stroke-linecap="round" />
	<path d="M 68.533 59.064 c -0.348 0 -0.699 -0.09 -1.02 -0.281 c -0.95 -0.563 -1.262 -1.791 -0.697 -2.74 l 14.342 -24.129 c 0.563 -0.949 1.791 -1.263 2.74 -0.697 c 0.95 0.564 1.262 1.792 0.697 2.741 L 70.254 58.086 C 69.881 58.716 69.216 59.064 68.533 59.064 z" style="stroke: none; stroke-width: 1; stroke-dasharray: none; stroke-linecap: butt; stroke-linejoin: miter; stroke-miterlimit: 10; fill: rgb(0,0,0); fill-rule: nonzero; opacity: 1;" transform=" matrix(1 0 0 1 0 0) " stroke-linecap="round" />
	<path d="M 10.105 59.064 H 2.5 c -1.104 0 -2 -0.896 -2 -2 s 0.896 -2 2 -2 h 7.605 c 1.104 0 2 0.896 2 2 S 11.209 59.064 10.105 59.064 z" style="stroke: none; stroke-width: 1; stroke-dasharray: none; stroke-linecap: butt; stroke-linejoin: miter; stroke-miterlimit: 10; fill: rgb(0,0,0); fill-rule: nonzero; opacity: 1;" transform=" matrix(1 0 0 1 0 0) " stroke-linecap="round" />
</g>
</svg>